<svg width="420" height="280" viewBox="0 0 420 280" fill="none" xmlns="http://www.w3.org/2000/svg">
  <rect x="12" y="12" width="396" height="256" rx="28" fill="#FFFFFF" />
  <g stroke="#E2E8F0" stroke-width="2" stroke-linecap="round">
    <line x1="70" y1="70" x2="180" y2="60" />
    <line x1="180" y1="60" x2="300" y2="80" />
    <line x1="70" y1="70" x2="100" y2="160" />
    <line x1="180" y1="60" x2="220" y2="150" />
    <line x1="300" y1="80" x2="330" y2="160" />
    <line x1="100" y1="160" x2="220" y2="150" />
    <line x1="220" y1="150" x2="330" y2="160" />
    <line x1="100" y1="160" x2="140" y2="230" />
    <line x1="220" y1="150" x2="270" y2="220" />
    <line x1="330" y1="160" x2="270" y2="220" />
  </g>
  <circle cx="70" cy="70" r="16" fill="#12B7A5" />
  <circle cx="180" cy="60" r="18" fill="#FF3D54" />
  <circle cx="300" cy="80" r="16" fill="#FFC857" />
  <circle cx="100" cy="160" r="20" fill="#FF3D54" />
  <circle cx="220" cy="150" r="22" fill="#12B7A5" />
  <circle cx="330" cy="160" r="16" fill="#FF3D54" />
  <circle cx="140" cy="230" r="16" fill="#FFC857" />
  <circle cx="270" cy="220" r="18" fill="#12B7A5" />
  <circle cx="70" cy="70" r="5" fill="#FFFFFF" />
  <circle cx="180" cy="60" r="6" fill="#FFFFFF" />
  <circle cx="300" cy="80" r="5" fill="#FFFFFF" />
  <circle cx="100" cy="160" r="6" fill="#FFFFFF" />
  <circle cx="220" cy="150" r="7" fill="#FFFFFF" />
  <circle cx="330" cy="160" r="5" fill="#FFFFFF" />
  <circle cx="140" cy="230" r="5" fill="#FFFFFF" />
  <circle cx="270" cy="220" r="6" fill="#FFFFFF" />
  <rect x="12.5" y="12.5" width="395" height="255" rx="27.5" stroke="#E2E8F0" />
</svg>
